<svg fill="none" height="752" viewBox="0 0 757 752" width="757" xmlns="http://www.w3.org/2000/svg"><path d="m222.21 634.58s21.15 37.8 57 28.02c1.35-.37 2.78-.09 3.93.69 10.06 6.82 29.04 12.33 54.8 1.78 1.39-.57 2.98-.43 4.23.4 20.59 13.65 49.51 18.36 75.06-2.13.77-.62 1.81-.78 2.73-.41 13.58 5.46 21.67 5.13 38.42-1.29 2.91-1.12 4.94-1.55 6.24-1.44 4.09.34 12.68 6.4 29.8 1.66-5.92 17.46-51.26 31.1-51.26 31.1l-148.5 11.89-78.58-31.36z" fill="#93b4f6"/><path d="m92.0201 462.06c-46.02 1.33-50.76 31.21-50.77 38.54-.02 8.2 2.97 15.67 9.98 17.6 8.55 2.36 12.54-5.94 8.07-8.98-6.77-4.59-5.55-8.71-2.19-10.68 4.75-2.77 28.7-.82 19.28 38.3-3.36 13.97-9.19 15.9-11.02 22.04.65 16.69 8.7 15.44 26.06 15.44 30.9999 0 53.3299-26.5 53.3299-57.5-.02-30.99-21.75-55.65-52.7399-54.76z" fill="#93b4f6"/><path d="m679.07 643.3c17.67-36.35 4.2-77.66-26.58-103.85-19.94-16.96-11.61-35.35-1.97-36.99 5.63-.96 12.39 7.04 5.38 13.27-1.93 1.71.51 6.3 7.71 2.92 5.21-2.45 12.76-17.44.18-29.2-11.8-11.04-27.16-12.99-43.38-7.13-28.46 10.29-37.27 37.67-32.4 71.54 3.59 25 10.04 127.02 10.04 127.02l52.79-.9c12.58-10.41 21.68-23.2 28.23-36.68z" fill="#93b4f6"/><path d="m648.12 578.73c4.66 8.04 16.36 5.19 13.13-2.41-5.16-12.18 5.82-15.36 9.77-12.68 11.21 7.59 16.22 34.77-15.02 47.19-15.75 6.26-50.27 6.75-88.11-.58-15.83 20.04-2.49 114.47 90.86 112.96 98.23-1.58 110.76-108.44 87.28-152.95-14.6-27.67-53.92-45.15-83.12-35.84-15.41 4.9-26.61 23.91-14.79 44.31z" fill="#93b4f6"/><path d="m474.44 639.501c1.43-.39 2.53-.96 2.94-1.78 1.22-2.47-3.36-4.73-5.34-9.31-2.32-5.34-.26-10.93 3.61-12.9 5.22-2.66 13.73-.76 18.48 5.31 5.05 6.44 20.29 35.99-29.14 61.51 39.31 12.52 68.23-33.24 68.8-45.14 1.88-39.05-25.81-55.69-49.11-54.81-21.72.82-30.38 17.35-29.68 34.07.56 13.49 12.34 25.01 19.44 23.05z" fill="#93b4f6"/><path d="m178.8 691.84c2.59 0 5.86-.02 9.59-.09l12.34 22.08c41.51 26.46 70.97 43.29 144.21 15.5 43.07-16.34 53.59-21.95 76.44-23.95 10.61 16.7 35.41 27.31 66.05 30.64l44.86-22.06s10.92-51.01.21-84.87c-20.79 45.17-54.49 46.79-71.68 33.28-1.19-.94-2.89-.88-3.97.19-27.97 27.62-48.84 18.21-58.58 12.44-1.23-.73-2.75-.74-4.02-.08-40.45 21.2-72.68 4.31-82.48-2.05-1.73-1.13-4-.86-5.46.6-3.63 3.61-11.59 9.54-25.14 10.24-11.1.58-29.98-7.39-40.98-24.34-25.3-38.99-42.84-98.19-28.98-132.19 5.04-12.36 15.08-16.87 23.15-16.71 10.38.21 14.95 8.17 6.85 9.98-4.78 1.07-4.21 9.64 5.36 9.5 11.72-.17 19.06-11.76 19.06-21.33 0-30.08-25.74-47.45-64.97-47.45-45.76 0-83.75 42.35-83.75 88.8-.01 46.44 16.14 141.87 61.89 141.87z" fill="#93b4f6"/><path d="m246.43 743.2c25.57 8.37 54.67 9.11 99.75-7.13 31.46-11.33 48.48-26.35 75.21-30.69 5.24 8.24 13.93 14.99 25.07 20.13l58.19-9.42s30.79-48.74 11.73-31.62c-17.21 15.45-40.29 6.14-51.14 2.53-1.69-.56-3.54-.26-4.99.78-19.88 14.26-38.86 17.61-57.09 9.75-2.25-.97-4.74-1.18-6.59.44-22.79 19.92-46.38 11.48-63.1.96-2.03-1.28-4.64-.97-6.42.63-33.23 29.96-72.38 7.82-82.54-3.37-1.24-1.36-3.1-1.95-4.91-1.61-31.32 5.75-45.43-17.05-45.43-17.05-11.14 25.18 27.56 51.08 52.26 65.67z" fill="#93b4f6"/><path d="m491.03 696.14c-17.04 11.68-47.96 20.25-60.35 20.19 28.34 29.05 104.91 32.33 145.68 21.73 57.04-14.84 74.06-49.08 74.03-86.48-.09-102.82-95.8-110-103.31-137.36-3.46-12.62 2.12-17.87 7.18-20.38 5.81-2.88 12.8.37 12.91 3.14.14 3.78-6.69 3.79-3.61 10.04 1.57 3.2 5.95 3.67 10.62 1.7 7.61-3.21 11.77-11.45 10.46-19.6-3.75-23.4-22.68-39.24-48.88-39.24-29.78 0-56.59 20.35-63.38 49.38-8.97 38.34 31.07 66.32 47.53 103.82 19.44 46.53-9.69 79.9-28.88 93.06z" fill="#93b4f6"/><path d="m136.4 688.961c72.84 35.29 92.69 74.44 167.43 58.37-86.58-6.05-109.1-79.62-97.34-111.19 4.3-11.56 14.71-20.13 26.23-22.21 4.83-.87 12.41-.79 16.16 4.41 1.68 2.34.65 5.13-2.34 6.6-2.54 1.25-5.09 2.69-4.9 6.75.28 6.05 10.78 8.81 18.17.77 6.89-7.49 2.91-27.23-8.19-36.55-14.22-11.93-35.9-14.91-56.21-12.57-50.34 5.79-87.6 42.5-94.41 95.81 9.67 1.29 23.75 4.17 35.4 9.81z" fill="#93b4f6"/><path d="m60.04 659.141c8.35-5.29 7.55-13.91 6.9-16.19-1.71-6.01-10.05-5.83-11.78.17-.5 1.74-1.7 3.18-4.07 3.79-8.14 2.09-10.68-18.15.14-24.14 17.4-9.63 40.83 22.12 9.88 57.25 31.88-7.03 68.08 3.13 97.28 17.83 15.35-16.86 26.24-41.47 26.24-66.69 0-51.8-43.56-93.3-88.89-95.89-47.05-2.69-95.440015 28.33-94.760015 74.9.699995 47.9 42.870015 59.23 59.060015 48.97z" fill="#93b4f6"/><path d="m397.41 297.83h-93.76l1.86 7.34h93.22z" fill="#fff"/><path d="m301.29 61.2202h-130c-1.66 0-3.23-.71-4.42-2.01-1.4-1.52-2.1-3.66-1.92-5.85.3-3.64 3.19-6.49 6.58-6.49h4.73c1.93 0 3.89-.17 5.15-1.44 1.21-1.21 1.79-3.4 1.78-6.68-.04-9.92 2.69-17.71 8.11-23.14 7.47-7.49997 18.22-8.61997 23.96-8.61997 6.55 0 9.61 4.38997 12.56 8.63997 3.3 4.75 6.72 9.65 15.29 9.65h13.42c8.72 0 14.19 4.13 18.87 14.24l.13.29c2.74 5.93 4.28 8.77 9.2 8.77h16.27c2.01 0 3.7.69 4.89 1.98 1.04 1.14 1.62 2.67 1.62 4.32-.01 3.15-2.14 6.34-6.22 6.34zm-129.77-12.35c-2.35 0-4.37 2.04-4.58 4.65-.14 1.64.37 3.22 1.4 4.34.81.88 1.86 1.36 2.95 1.36h130c2.89 0 4.21-2.25 4.21-4.33 0-2.14-1.39-4.3-4.5-4.3h-16.29c-6.42 0-8.44-4.38-11.01-9.93l-.13-.29c-4.35-9.41-9.13-13.08-17.05-13.08h-13.42c-9.61 0-13.5-5.58-16.93-10.51-2.91-4.17-5.42-7.77997-10.92-7.77997-5.43 0-15.58 1.03997-22.54 8.02997-5.03 5.05-7.56 12.36-7.52 21.73.01 3.84-.76 6.48-2.36 8.1-1.78 1.79-4.32 2.03-6.57 2.03h-4.74z" fill="#000"/><path d="m664.37 376.571h-183.35c-3.51 0-6.44-1.27-8.46-3.68-1.76-2.09-2.73-4.95-2.73-8.04 0-6.18 4.06-12.75 11.59-12.75h13.11c1.25 0 2.15-.34 2.76-1.03 2.08-2.39 1.17-8.93.03-17.21-.32-2.3-.65-4.69-.95-7.22l-.05-.46c-1.16-9.72-3.58-29.94 16.99-37.31 7.89-2.83 11.8-3.91 18.89-5.88 1.84-.51 3.9-1.08 6.32-1.76 6.36-1.79 11.04-1.84 15.17-.15 5.04 2.06 9.11 6.79 12.47 14.46 4.4 10.06 8.01 13.16 13.83 11.84 39.67-9.01 46 7.23 52.13 22.94.38.96.75 1.92 1.13 2.88 3.94 9.81 8.71 18.89 16.92 18.89h13.82c7.84 0 11.95 6.26 11.95 12.45-.02 5.8-3.63 12.03-11.57 12.03zm-182.94-22.47c-6.3 0-9.59 5.41-9.59 10.75 0 2.62.8 5.02 2.26 6.76 1.63 1.94 4.03 2.96 6.93 2.96h183.35c6.56 0 9.55-5.19 9.55-10.02 0-5.03-3.11-10.45-9.95-10.45h-13.82c-9.4 0-14.58-9.68-18.78-20.15-.38-.96-.76-1.93-1.14-2.89-6.09-15.61-11.84-30.35-49.82-21.72-7.9 1.8-12.02-3.64-16.1-12.99-6.56-15-14.84-16.12-25.27-13.19-2.42.68-4.48 1.25-6.32 1.76-7.28 2.02-10.93 3.03-18.75 5.83-19.07 6.84-16.78 25.99-15.68 35.19l.06.46c.3 2.51.63 4.89.95 7.18 1.26 9.13 2.18 15.72-.5 18.79-.99 1.14-2.43 1.72-4.27 1.72h-13.11z" fill="#000"/><path d="m259.42 395.191h-164.9899c-2.28 0-4.4899-.96-6.0499-2.62-1.58-1.69-2.3701-3.9-2.2201-6.22.28-4.34 4.02-7.74 8.52-7.74h8.1199c3.3 0 5.98-2.68 5.98-5.98v-13.23c0-8.33 5.68-15.44 13.81-17.28l22.91-5.17c8.44-1.91 17.1 1.44 22.07 8.52 3.09 4.41 8.15 7.04 13.54 7.04h23.26c9.23 0 17.55 5.83 20.71 14.49 2.53 6.94 9.19 11.61 16.58 11.61h17.52c4.5 0 8.24 3.4 8.52 7.74.15 2.32-.64 4.53-2.22 6.22-1.57 1.66-3.78 2.62-6.06 2.62zm-164.7399-14.58c-3.45 0-6.31 2.58-6.52 5.87-.11 1.76.4801 3.44 1.6801 4.72s2.8299 1.99 4.5899 1.99h164.9899c1.76 0 3.39-.71 4.59-1.99s1.8-2.96 1.68-4.72c-.21-3.29-3.08-5.87-6.52-5.87h-17.52c-8.23 0-15.65-5.19-18.46-12.92-2.87-7.88-10.44-13.18-18.83-13.18h-23.26c-6.04 0-11.71-2.95-15.18-7.89-4.5-6.42-12.35-9.45-19.99-7.72l-22.91 5.17c-7.21 1.63-12.25 7.93-12.25 15.33v13.23c0 4.4-3.58 7.98-7.98 7.98z" fill="#000"/><g fill="#fff"><path d="m177.77 669.04-1.85-.769c5.04-12.03 7.7-24.861 7.7-37.111 0-24.2-9.65-47.529-27.16-65.699-16.67-17.29-38.82-27.93-60.7801-29.19l.12-2c22.4501 1.29 45.0901 12.149 62.1001 29.799 17.88 18.55 27.72 42.37 27.72 67.09.01 12.5-2.71 25.6-7.85 37.88z"/><path d="m206.26 677.8c-4.58-15.18-4.85-30.88-.71-42 4.36-11.7 14.95-20.67 26.99-22.85l.36 1.97c-11.36 2.05-21.35 10.52-25.47 21.58-3.99 10.73-3.71 25.95.75 40.73z"/><path d="m242.26 590.931c-12.22-6.32-28.82-8.66-46.76-6.6-3.6.41-7.19 1-10.67 1.73l-.41-1.961c3.54-.75 7.19-1.339 10.86-1.759 18.32-2.11 35.33.31 47.9 6.81z"/><path d="m307.51 712.55-.66-1.89c6.95-2.44 13.52-6.43 19.54-11.86 2.13-1.92 5.26-2.22 7.62-.73 5.32 3.35 10.55 5.97 15.53 7.76l-.68 1.88c-5.12-1.85-10.47-4.52-15.92-7.95-1.61-1.01-3.75-.79-5.21.53-6.22 5.61-13.02 9.74-20.22 12.26z"/><path d="m380.26 708.78-.64-1.89c5.66-1.92 11.14-5.17 16.3-9.68 1.93-1.68 4.64-1.9 7.64-.6 4.28 1.84 8.66 3.08 13.03 3.66l-.26 1.98c-4.55-.61-9.12-1.89-13.56-3.8-1.59-.69-3.85-1.2-5.53.27-5.36 4.67-11.08 8.06-16.98 10.06z"/><path d="m442.26 698.85-.72-1.87c5.91-2.27 12-5.64 18.12-10.03 1.71-1.23 3.92-1.57 5.88-.91.68.23 1.4.47 2.17.74 4.33 1.48 10.26 3.51 16.67 4.57l-.33 1.97c-6.57-1.09-12.6-3.15-16.99-4.65-.76-.26-1.48-.51-2.16-.73-1.36-.46-2.89-.22-4.09.64-6.24 4.49-12.48 7.95-18.55 10.27z"/><path d="m264.19 710.271c-9.83-4.14-16.99-9.65-20.42-13.42-.99-1.09-2.48-1.58-3.99-1.3-6.13 1.12-12.07 1.24-17.64.35l.32-1.97c5.34.85 11.05.74 16.96-.34 2.19-.41 4.38.32 5.84 1.93 3.29 3.62 10.19 8.91 19.71 12.92z"/><path d="m275.03 743.37c-21.89-6.33-40.26-18.51-53.14-35.23l1.58-1.22c12.61 16.38 30.63 28.31 52.11 34.53z"/><path d="m459.41 711.59-.6-1.91c12.76-4.02 24-9.12 31.66-14.37 5.78-3.96 20.12-15.15 28.59-33.6 8.43-18.37 8.41-37.97-.07-58.25l1.85-.77c8.7 20.82 8.71 40.96.04 59.86-8.67 18.91-23.36 30.37-29.27 34.42-7.83 5.35-19.26 10.54-32.2 14.62z"/><path d="m635.57 703.88-1.6-1.21c10.24-13.58 15.43-30.77 15.41-51.1-.05-54.62-27.6-80.99-48.32-96.07l1.18-1.62c14.93 10.87 26.03 22.73 33.93 36.28 10.07 17.25 15.19 37.92 15.21 61.41.02 20.77-5.3 38.37-15.81 52.31z"/><path d="m647.25 579.231c-6.9-11.9-6.8-24.51.27-34.59l1.64 1.15c-6.6 9.42-6.67 21.24-.18 32.44z"/><path d="m656.38 611.75-.74-1.86c18.31-7.28 22.2-18.93 22.88-25.23.88-8.09-2.43-16.4-8.05-20.2-1.01-.68-2.65-.89-4.27-.55-1.08.23-3.07.9-4.31 2.87l-1.69-1.06c1.21-1.92 3.19-3.25 5.59-3.76 2.18-.46 4.35-.14 5.81.85 6.21 4.2 9.88 13.28 8.92 22.08-.74 6.73-4.85 19.19-24.14 26.86z"/><path d="m120.45 529.27-1.94-.48c3.22-13.02 9.41-25.52 17.92-36.14l1.56 1.25c-8.33 10.39-14.4 22.62-17.54 35.37z"/><path d="m280.03 684.731c-6.15 0-13.88-2.33-20.96-6.35l.99-1.74c7.23 4.11 15.1 6.38 21.06 6.06 6.13-.32 11.73-1.76 16.62-4.29l.92 1.78c-5.15 2.66-11.01 4.18-17.43 4.51-.4.02-.8.03-1.2.03z"/><path d="m338.12 684.611c-6.97-1.45-13.73-3.81-20.08-7.01l.9-1.79c6.2 3.12 12.79 5.42 19.58 6.84z"/><path d="m419.37 682.3c-5.86 0-11.65-1.38-17.37-4.16l.87-1.8c13.49 6.55 27.52 4.93 41.7-4.81l1.13 1.65c-8.84 6.08-17.65 9.12-26.33 9.12z"/><path d="m482.88 670.8c-2.21 0-4.42-.19-6.62-.57l.34-1.97c12.35 2.16 25.13-2.15 35.98-12.13l1.35 1.47c-9.39 8.64-20.21 13.2-31.05 13.2z"/></g><path d="m446.05 134.541-8.08-7.32-36.11 10.49-9.46-5.69-43.32 12.93-9.91-5.69-20.46 9.45 8.64.11 10.72-3.05 7.89 8.95 43.12-12.93.05.05 8.31 8.9 35.58-10.44 5.67 8.04 40.19-11.27c.9 0 1.32-1.12.64-1.71l-4.44-3.87c-.43-.38-.45-1.05-.02-1.44l4.61-4.31c.65-.6.22-1.68-.66-1.68z" fill="#000"/><path d="m436.23 154.72-5.2-10.51-35.37 11.66-7.09-11.39-45.03 13.67-6.98-8.38-18.25-.03-.17 4.5 17.31 3.25 8.27 12.87 42.97-12.83 8.15 13.22 33.13-10.44 6.01 10.44 39.85-11.47c.9 0 1.32-1.12.64-1.71l-4.57-4.75c-.43-.38-.45-1.05-.02-1.44l4.75-7.09c.65-.6.22-1.68-.66-1.68z" fill="#000"/><path d="m336.4 390.971h42.47v162.41h-85.55c-8.86 0-16.04-7.18-16.04-16.04v-13.09c0-9.26 2.06-18.41 6.03-26.78z" fill="#000"/><path d="m469.24 546.93s-14.86-9.82-21.19-13.98c-8.1-5.34-10.56-12.31-11.82-19.28l-59.06-328.37h-137.37l1.6-15.4h-77.95l-10.16 63.09c-2.32 14.39 8.79 27.43 23.37 27.43h95.12c13.16 0 24.64 8.93 27.88 21.68l68.48 271.6h99.32c3.79.01 4.4-5.34 1.78-6.77z" fill="#274d76"/><path d="m332.94 191.01h-34.38v-49.15h10.33z" fill="#ec8c92"/><path d="m291.68 138.75v29.92c0 2.38 1.93 4.32 4.32 4.32 11.8 0 20.86-9.54 20.97-24.55l.27-.18z" fill="#f2bdba"/><path d="m228.802 180.558-8.179 50.885 1.975.318 8.179-50.886z" fill="#000"/><path d="m323.58 136.78-27.86-21.04c-1.66-1.24-4.03-.06-4.03 2.02v21l25.56 9.5 6-3.92c1.58-1.03 2.5-2.9 2.12-4.75-.23-1.08-.83-2.09-1.79-2.81z" fill="#93b4f6"/><path d="m316.97 148.44-25.29-6.67v-7.12l27.03 12.65z" fill="#000"/><path d="m346.69 185.3h-106.89l1.59-15.4h-12.69l-2.35 15.4 114.52 71.77z" fill="#93b4f6"/><path d="m343.5 224.641 3.19-39.34h-65.96z" fill="#fff"/><path d="m248.89 184.85-18.76 9.85c-7.94 4.17-17.75.88-21.57-7.24l-9.09-19.3 42.83-14.68c5.1-1.75 10.43 1.94 10.61 7.32l.52 16.25c.1 3.26-1.66 6.29-4.54 7.8z" fill="#ec8c92"/><path d="m238.04 135.86v25.8l59-10.65c1.06-.23 1.81-1.17 1.81-2.26 0-1.08-.75-2.02-1.81-2.26z" fill="#274d76"/><path d="m228.8 184.9c-2.81.18-9.81.65-10.38-4.41-4.25 5.67-18.27 6.71-19.67.07-3.05 5.42-15.91 7.8-20.76-.07-6.24 4.69-12.2 4.68-16.45 4.41-5.9-.38-10.7-4.79-10.7-10.7v-31.07c0-19.75 16.01-27.5 35.76-27.5h30.69c15.56 0 28.18 4.36 28.18 19.92v32.68c-.01 9.21-7.48 16.09-16.67 16.67z" fill="#f2bdba"/><path d="m147.27 175.34c-6.55.99-20.3 2.66-20.3 2.66v-58.75s13.76 1.51 20.3 2.66c9.47 1.68 17.42 7.8 17.42 17.42v18.58c0 9.63-7.91 15.99-17.42 17.43z" fill="#274d76"/><path d="m49.3 88.0703-.4899 119.9597 59.4699-13.29c15.25-3.39 26.11-16.91 26.11-32.54v-28.36c0-15.63-10.85-29.15-26.11-32.54z" fill="#93b4f6"/><path d="m48.31 208.06c10.7861 0 19.53-26.876 19.53-60.03s-8.7439-60.03-19.53-60.03-19.53 26.876-19.53 60.03 8.7439 60.03 19.53 60.03z" fill="#274d76"/><path d="m451.41 71.7806h-91.8v-57.64h79.98c6.53 0 11.82 5.29 11.82 11.82z" fill="#74baab"/><path d="m451.32 34.5107v-5.75c0-1.29-1.04-2.33-2.33-2.33s-2.33 1.04-2.33 2.33v51.56c0 10.27 8.32 18.59 18.59 18.59h95.52c5.21 0 7.45-6.6 3.33-9.78l-26.94-20.77c-1.83-1.41-2.01-4.12-.37-5.75l15.67-15.66c2.26-2.26.66-6.11-2.53-6.11h-92.28c-3.49 0-6.33-2.83-6.33-6.33z" fill="#74baab"/><path d="m372.68 553.72-11.85-545.72977h-4.74v545.72977z" fill="#fff3a1"/><path d="m356.09 641.811v52.67c6.33.69 12.96-.34 19.65-3.36l-1.08-49.3h-18.57z" fill="#fff3a1"/><path d="m358.31 11.6803c-3.14 0-5.68-2.53999-5.68-5.67999s2.54-5.679998 5.68-5.679998 5.68 2.539998 5.68 5.679998c0 3.13-2.54 5.67999-5.68 5.67999z" fill="#fff3a1"/><path d="m326.6 228.59-3.89-1.11c-4.77-1.36-7.53-6.33-6.18-11.1l4.02-14.11c1.82-6.38 8.46-10.07 14.84-8.25l.98.28c4.77 1.36 7.54 6.33 6.18 11.1l-4.85 17.01c-1.36 4.77-6.33 7.54-11.1 6.18z" fill="#ec8c92"/><path d="m343.3 259.12h116.18c8.44 0 15.29-6.85 15.29-15.29v-25.09c0-23.45-19.01-42.45-42.45-42.45h-72.57c-19.73 0-33.35 12.34-30.59 27.64-4.43 4.1-4.15 13.98-.07 18.83-3.3 5.57-2.07 15.72 3.25 18.22-2.72 5.42.7 18.14 10.96 18.14z" fill="#f2bdba"/><path d="m432.32 176.29h-50.95c11.2 0 20.29 9.08 20.29 20.29v49.28c0 7.33-5.94 13.27-13.27 13.27h71.1c8.45 0 15.29-6.85 15.29-15.29v-25.09c-.01-23.46-19.02-42.46-42.46-42.46z" fill="#274d76"/><path d="m47.9901 199.36c8.113 0 14.69-22.981 14.69-51.33s-6.577-51.3298-14.69-51.3298c-8.1131 0-14.6901 22.9808-14.6901 51.3298s6.577 51.33 14.6901 51.33z" fill="#000"/><path d="m309.22 152.961c-.44-.53-.94-.93-1.51-1.22-1.37-.71-3.03-.72-4.77-.73h-.15l.02-2h.14c1.9.02 3.87.03 5.67.96.81.41 1.52.99 2.13 1.72z" fill="#000"/><path d="m297.55 163.19c-.3 0-.6 0-.89 0h-.51l.01-2h.51c2.5.02 5.33.04 6.68-1.5l1.51 1.32c-1.76 2-4.62 2.18-7.31 2.18z" fill="#000"/><path d="m323.09 184.301h-32.16v2h32.16z" fill="#000"/><path d="m320.2 192.811h-15.23v2h15.23z" fill="#000"/><path d="m358.31 12.68c-3.68 0-6.68-3-6.68-6.68h2c0 2.58 2.1 4.68 4.68 4.68s4.68-2.1 4.68-4.68h2c0 3.68-2.99 6.68-6.68 6.68z" fill="#000"/><path d="m357.09 652.051h-2v33.19h2z" fill="#000"/><path d="m450.7 557.56c-.25-.02-.49-.03-.74-.03h-167.87c-.25 0-.5.01-.74.03-5.75.42-9.26 5.99-7.18 10.87 3.89 9.12 16.86 39.38 25.16 56.89 1.06 2.24 5.45 10.52 6.79 12.15 5.77 7.05 12.74 7.99 16.85 7.99h35.93 14.27 35.93c4.11 0 11.08-.94 16.85-7.99 1.33-1.63 5.72-9.91 6.79-12.15 8.3-17.51 21.27-47.77 25.16-56.89 2.06-4.88-1.45-10.44-7.2-10.87z" fill="#93b4f6"/><path d="m409.09 644.471h-86.13v2h86.13z" fill="#000"/><path d="m426.54 630.021h-14.18v-2h14.18zm-16.53 0h-18.32v-2h16.81l16.64-58.32 1.92.55zm-29.86 0h-17.22v-2h15.49l8.38-59.37 1.98.28zm-27.67 0h-18.31v-2h15.96l-9.5-59.1 1.97-.32zm-29.85 0h-17.13v-2h14.42l-17.05-55.76 1.91-.59z" fill="#000"/><path d="m47.6899 144.04c0 13.1 1.5101 23.72-2.2399 23.72s-6.7901-10.62-6.7901-23.72 3.0401-23.72 6.7901-23.72c3.75-.01 2.2399 10.62 2.2399 23.72z" fill="#74baab"/><path d="m447.66 31.0107h-2v51.98h2z" fill="#000"/><path d="m332.46 201.311-1.1-1.67c6.78-4.48 14.03-8.83 14.1-8.88l1.03 1.71c-.08.06-7.28 4.39-14.03 8.84z" fill="#000"/><path d="m333.46 220.01-1.05-1.7c7-4.3 14.75-8.85 14.83-8.89l1.01 1.72c-.07.04-7.81 4.58-14.79 8.87z" fill="#000"/><path d="m336.15 239.11-.98-1.74c5.42-3.07 12.05-6.64 12.11-6.67l.95 1.76c-.07.04-6.68 3.6-12.08 6.65z" fill="#000"/><path d="m219.78 178.69-1.73-.99c1.19-2.08 1.82-4.45 1.82-6.85v-15.57h2v15.57c-.01 2.74-.73 5.46-2.09 7.84z" fill="#000"/><path d="m200.45 177.65-1.86-.73c.62-1.6.94-3.29.94-5.02v-16.74h2v16.74c0 1.99-.37 3.92-1.08 5.75z" fill="#000"/><path d="m179.36 177.97-1.77-.94c1.05-1.98 1.6-4.21 1.6-6.46v-14.79h2v14.79c.01 2.58-.62 5.14-1.83 7.4z" fill="#000"/><path d="m356.9 40.4307h-2v126.3003h2z" fill="#000"/><path d="m356.9 261.9h-2v126.3h2z" fill="#000"/></svg>