<svg width="1598" height="200" viewBox="0 0 1598 200" fill="none" xmlns="http://www.w3.org/2000/svg">
    <rect x="92.6588" width="92.6588" height="100" fill="#A8E0F2"/>
    <rect x="92.6588" y="100" width="92.6588" height="100" fill="#61A0DA"/>
    <rect y="100" width="92.6588" height="100" fill="#C6ADE4"/>
    <path d="M364.966 58.1406V74.7422H319.849V188.414H302.271V74.7422H257.154V58.1406H364.966ZM433.466 89.3906C443.492 89.3906 451.826 91.474 458.466 95.6406C465.107 99.8073 470.055 105.471 473.31 112.633C476.696 119.794 478.388 127.867 478.388 136.852V146.422H403.388C404.169 151.891 406.058 156.904 409.052 161.461C412.047 166.018 415.953 169.664 420.771 172.398C425.589 175.003 431.123 176.305 437.373 176.305C444.404 176.305 450.979 174.547 457.099 171.031C463.219 167.385 468.362 163.414 472.529 159.117L472.334 176.5C470.511 178.714 467.776 181.057 464.13 183.531C460.615 185.875 456.513 187.828 451.826 189.391C447.268 191.083 442.451 191.93 437.373 191.93C427.477 191.93 418.688 189.586 411.005 184.898C403.323 180.211 397.268 174.026 392.841 166.344C388.544 158.531 386.396 150.003 386.396 140.758C386.396 131.513 388.414 122.984 392.451 115.172C396.487 107.359 402.021 101.109 409.052 96.4219C416.214 91.7344 424.352 89.3906 433.466 89.3906ZM433.466 105.016C425.393 105.016 418.753 107.75 413.544 113.219C408.336 118.557 405.081 125.068 403.779 132.75H462.568C461.917 126.37 460.094 121.161 457.099 117.125C454.235 113.089 450.719 110.094 446.552 108.141C442.386 106.057 438.024 105.016 433.466 105.016ZM554.896 89.3906C562.058 89.3906 568.242 90.5625 573.451 92.9062C578.659 95.1198 582.24 97.138 584.193 98.9609V115.172C580.547 112.438 576.38 110.094 571.693 108.141C567.005 106.057 561.406 105.016 554.896 105.016C547.995 105.016 541.94 106.708 536.732 110.094C531.524 113.349 527.487 117.711 524.623 123.18C521.888 128.518 520.521 134.378 520.521 140.758C520.521 147.008 521.888 152.867 524.623 158.336C527.487 163.674 531.524 168.036 536.732 171.422C541.94 174.677 547.995 176.305 554.896 176.305C561.406 176.305 567.005 175.328 571.693 173.375C576.38 171.292 580.547 168.883 584.193 166.148V182.359C582.24 184.312 578.659 186.396 573.451 188.609C568.242 190.823 562.058 191.93 554.896 191.93C545 191.93 536.211 189.586 528.529 184.898C520.847 180.211 514.792 174.026 510.365 166.344C506.068 158.531 503.919 150.003 503.919 140.758C503.919 131.513 506.068 122.984 510.365 115.172C514.792 107.359 520.847 101.109 528.529 96.4219C536.211 91.7344 545 89.3906 554.896 89.3906ZM664.412 89.3906C671.052 89.3906 677.107 90.888 682.576 93.8828C688.044 96.7474 692.406 101.174 695.662 107.164C698.917 113.023 700.544 120.445 700.544 129.43V189H684.529L684.334 130.992C684.334 122.529 682.446 116.083 678.669 111.656C675.024 107.229 669.36 105.016 661.677 105.016C656.469 105.016 651.261 106.969 646.052 110.875C640.974 114.651 636.482 119.078 632.576 124.156V189H616.56V48.375H632.576V106.773C634.659 104.169 637.328 101.565 640.584 98.9609C643.839 96.2266 647.485 93.9479 651.521 92.125C655.688 90.3021 659.985 89.3906 664.412 89.3906ZM773.341 56.1875C781.024 56.1875 787.339 57.2943 792.287 59.5078C797.365 61.7214 801.792 64.0651 805.568 66.5391V84.7031C801.922 81.9688 797.495 79.4297 792.287 77.0859C787.078 74.612 781.414 73.375 775.294 73.375C771.388 73.375 767.287 74.0911 762.99 75.5234C758.823 76.8255 755.308 78.974 752.443 81.9688C749.578 84.9635 748.146 88.8047 748.146 93.4922C748.146 98.7005 750.034 102.672 753.81 105.406C757.586 108.141 762.143 110.745 767.482 113.219L785.451 121.422C794.435 125.458 801.206 129.951 805.763 134.898C810.321 139.846 812.599 146.422 812.599 154.625C812.599 161.786 810.516 168.102 806.349 173.57C802.183 178.909 796.714 183.141 789.943 186.266C783.172 189.391 775.75 190.953 767.677 190.953C760.125 190.953 753.159 189.651 746.779 187.047C740.399 184.443 734.865 181.513 730.177 178.258V160.094C735.255 163.609 741.05 166.799 747.56 169.664C754.201 172.398 761.688 173.766 770.021 173.766C776.531 173.766 782.261 172.138 787.209 168.883C792.156 165.628 794.63 161.135 794.63 155.406C794.63 152.151 793.589 149.352 791.505 147.008C789.552 144.664 787.143 142.646 784.279 140.953C781.414 139.26 778.615 137.828 775.88 136.656L754.201 126.891C744.826 122.724 738.446 117.841 735.06 112.242C731.675 106.643 729.982 100.198 729.982 92.9062C729.982 86.0052 731.935 79.8203 735.841 74.3516C739.878 68.7526 745.216 64.3255 751.857 61.0703C758.498 57.8151 765.659 56.1875 773.341 56.1875ZM871.919 63.2188V91.3438H900.435V106.383H871.919V163.609C871.919 167.646 872.961 170.836 875.044 173.18C877.128 175.523 880.318 176.695 884.615 176.695C888.521 176.695 891.776 176.24 894.38 175.328C896.985 174.286 899.263 173.18 901.216 172.008V185.094C898.612 187.177 895.813 188.805 892.818 189.977C889.953 191.279 886.047 191.93 881.099 191.93C872.766 191.93 866.451 189.456 862.154 184.508C857.987 179.43 855.904 172.724 855.904 164.391V106.383H837.154V101.695C843.534 98.8307 848.873 94.1432 853.169 87.6328C857.466 80.9922 861.242 72.8542 864.498 63.2188H871.919ZM975.771 89.3906C981.37 89.3906 987.034 90.7578 992.763 93.4922C998.623 96.0964 1003.64 99.7422 1007.8 104.43V91.3438H1023.82V189H1007.8V172.398C1004.42 177.607 999.794 182.164 993.935 186.07C988.206 189.977 981.63 191.93 974.209 191.93C965.875 191.93 958.258 189.846 951.357 185.68C944.456 181.383 938.922 175.458 934.755 167.906C930.719 160.354 928.701 151.63 928.701 141.734C928.701 130.927 930.719 121.617 934.755 113.805C938.922 105.992 944.586 100.003 951.748 95.8359C958.909 91.5391 966.917 89.3906 975.771 89.3906ZM978.701 105.016C971.669 105.016 965.68 106.773 960.732 110.289C955.784 113.805 951.943 118.362 949.209 123.961C946.604 129.43 945.302 135.354 945.302 141.734C945.302 147.984 946.604 153.779 949.209 159.117C951.813 164.326 955.459 168.492 960.146 171.617C964.964 174.742 970.498 176.305 976.748 176.305C982.737 176.305 988.076 174.742 992.763 171.617C997.451 168.492 1001.16 164.195 1003.9 158.727C1006.63 153.128 1007.93 146.878 1007.8 139.977L1007.61 121.227C1003.57 116.148 999.209 112.177 994.521 109.312C989.964 106.448 984.69 105.016 978.701 105.016ZM1107.16 89.3906C1114.32 89.3906 1120.51 90.5625 1125.72 92.9062C1130.92 95.1198 1134.51 97.138 1136.46 98.9609V115.172C1132.81 112.438 1128.65 110.094 1123.96 108.141C1119.27 106.057 1113.67 105.016 1107.16 105.016C1100.26 105.016 1094.21 106.708 1089 110.094C1083.79 113.349 1079.75 117.711 1076.89 123.18C1074.15 128.518 1072.79 134.378 1072.79 140.758C1072.79 147.008 1074.15 152.867 1076.89 158.336C1079.75 163.674 1083.79 168.036 1089 171.422C1094.21 174.677 1100.26 176.305 1107.16 176.305C1113.67 176.305 1119.27 175.328 1123.96 173.375C1128.65 171.292 1132.81 168.883 1136.46 166.148V182.359C1134.51 184.312 1130.92 186.396 1125.72 188.609C1120.51 190.823 1114.32 191.93 1107.16 191.93C1097.27 191.93 1088.48 189.586 1080.79 184.898C1073.11 180.211 1067.06 174.026 1062.63 166.344C1058.33 158.531 1056.19 150.003 1056.19 140.758C1056.19 131.513 1058.33 122.984 1062.63 115.172C1067.06 107.359 1073.11 101.109 1080.79 96.4219C1088.48 91.7344 1097.27 89.3906 1107.16 89.3906ZM1255.15 91.3438L1209.84 133.922L1257.69 189H1237.38L1198.71 144.469L1184.84 157.359V189H1168.83V48.375H1184.84V139L1233.47 91.3438H1255.15ZM1293.97 165.172C1297.74 165.172 1300.93 166.539 1303.54 169.273C1306.27 171.878 1307.64 175.068 1307.64 178.844C1307.64 182.49 1306.27 185.68 1303.54 188.414C1300.93 191.148 1297.74 192.516 1293.97 192.516C1290.19 192.516 1286.94 191.148 1284.2 188.414C1281.6 185.68 1280.29 182.49 1280.29 178.844C1280.29 175.068 1281.6 171.878 1284.2 169.273C1286.94 166.539 1290.19 165.172 1293.97 165.172ZM1368.33 58.1406V172.398H1440.4V189H1350.75V58.1406H1368.33ZM1498.54 58.1406V126.891L1558.31 58.1406H1582.92L1528.04 118.492L1588.78 189H1564.36L1515.34 132.555L1498.54 150.914V189H1480.97V58.1406H1498.54Z"
          fill="black" fill-opacity="0.65"/>
</svg>
