<svg width="522" height="614" viewBox="0 0 522 614" fill="none" xmlns="http://www.w3.org/2000/svg">
<rect x="256" width="256" height="256" fill="#A8E0F2"/>
<rect x="256" y="256" width="256" height="256" fill="#61A0DA"/>
<rect y="256" width="256" height="256" fill="#C6ADE4"/>
<path d="M44.332 560.965V567.439H26.7363V611.771H19.8809V567.439H2.28516V560.965H44.332ZM71.047 573.152C74.9572 573.152 78.2072 573.965 80.797 575.59C83.3869 577.215 85.3166 579.424 86.5861 582.217C87.9064 585.01 88.5666 588.158 88.5666 591.662V595.395H59.3166C59.6213 597.527 60.3576 599.482 61.5255 601.26C62.6935 603.037 64.217 604.459 66.0959 605.525C67.9748 606.541 70.133 607.049 72.5705 607.049C75.3127 607.049 77.8771 606.363 80.2638 604.992C82.6505 603.57 84.6564 602.021 86.2814 600.346L86.2052 607.125C85.4943 607.988 84.4279 608.902 83.006 609.867C81.6349 610.781 80.0353 611.543 78.2072 612.152C76.4298 612.812 74.5509 613.143 72.5705 613.143C68.7111 613.143 65.2834 612.229 62.2873 610.4C59.2912 608.572 56.9298 606.16 55.2033 603.164C53.5275 600.117 52.6896 596.791 52.6896 593.186C52.6896 589.58 53.4767 586.254 55.0509 583.207C56.6252 580.16 58.7834 577.723 61.5255 575.895C64.3185 574.066 67.4923 573.152 71.047 573.152ZM71.047 579.246C67.8986 579.246 65.3088 580.312 63.2775 582.445C61.2463 584.527 59.9767 587.066 59.4689 590.062H82.3966C82.1427 587.574 81.4318 585.543 80.2638 583.969C79.1466 582.395 77.7755 581.227 76.1505 580.465C74.5255 579.652 72.8244 579.246 71.047 579.246ZM118.405 573.152C121.198 573.152 123.61 573.609 125.641 574.523C127.672 575.387 129.069 576.174 129.83 576.885V583.207C128.409 582.141 126.784 581.227 124.955 580.465C123.127 579.652 120.944 579.246 118.405 579.246C115.713 579.246 113.352 579.906 111.321 581.227C109.289 582.496 107.715 584.197 106.598 586.33C105.532 588.412 104.998 590.697 104.998 593.186C104.998 595.623 105.532 597.908 106.598 600.041C107.715 602.123 109.289 603.824 111.321 605.145C113.352 606.414 115.713 607.049 118.405 607.049C120.944 607.049 123.127 606.668 124.955 605.906C126.784 605.094 128.409 604.154 129.83 603.088V609.41C129.069 610.172 127.672 610.984 125.641 611.848C123.61 612.711 121.198 613.143 118.405 613.143C114.545 613.143 111.118 612.229 108.121 610.4C105.125 608.572 102.764 606.16 101.037 603.164C99.3616 600.117 98.5238 596.791 98.5238 593.186C98.5238 589.58 99.3616 586.254 101.037 583.207C102.764 580.16 105.125 577.723 108.121 575.895C111.118 574.066 114.545 573.152 118.405 573.152ZM161.116 573.152C163.706 573.152 166.067 573.736 168.2 574.904C170.333 576.021 172.034 577.748 173.303 580.084C174.573 582.369 175.208 585.264 175.208 588.768V612H168.961L168.885 589.377C168.885 586.076 168.149 583.562 166.676 581.836C165.254 580.109 163.045 579.246 160.049 579.246C158.018 579.246 155.987 580.008 153.956 581.531C151.975 583.004 150.223 584.73 148.7 586.711V612H142.454V557.156H148.7V579.932C149.512 578.916 150.553 577.9 151.823 576.885C153.092 575.818 154.514 574.93 156.088 574.219C157.713 573.508 159.389 573.152 161.116 573.152ZM203.598 560.203C206.594 560.203 209.057 560.635 210.987 561.498C212.967 562.361 214.694 563.275 216.167 564.24V571.324C214.745 570.258 213.018 569.268 210.987 568.354C208.956 567.389 206.747 566.906 204.36 566.906C202.837 566.906 201.237 567.186 199.561 567.744C197.936 568.252 196.565 569.09 195.448 570.258C194.331 571.426 193.772 572.924 193.772 574.752C193.772 576.783 194.508 578.332 195.981 579.398C197.454 580.465 199.231 581.48 201.313 582.445L208.321 585.645C211.825 587.219 214.465 588.971 216.243 590.9C218.02 592.83 218.909 595.395 218.909 598.594C218.909 601.387 218.096 603.85 216.471 605.982C214.846 608.064 212.714 609.715 210.073 610.934C207.432 612.152 204.538 612.762 201.389 612.762C198.444 612.762 195.727 612.254 193.239 611.238C190.751 610.223 188.592 609.08 186.764 607.811V600.727C188.745 602.098 191.005 603.342 193.544 604.459C196.133 605.525 199.053 606.059 202.303 606.059C204.842 606.059 207.077 605.424 209.006 604.154C210.936 602.885 211.901 601.133 211.901 598.898C211.901 597.629 211.495 596.537 210.682 595.623C209.921 594.709 208.981 593.922 207.864 593.262C206.747 592.602 205.655 592.043 204.589 591.586L196.133 587.777C192.477 586.152 189.989 584.248 188.669 582.064C187.348 579.881 186.688 577.367 186.688 574.523C186.688 571.832 187.45 569.42 188.973 567.287C190.548 565.104 192.63 563.377 195.219 562.107C197.809 560.838 200.602 560.203 203.598 560.203ZM242.044 562.945V573.914H253.165V579.779H242.044V602.098C242.044 603.672 242.45 604.916 243.262 605.83C244.075 606.744 245.319 607.201 246.995 607.201C248.518 607.201 249.788 607.023 250.804 606.668C251.819 606.262 252.708 605.83 253.47 605.373V610.477C252.454 611.289 251.362 611.924 250.194 612.381C249.077 612.889 247.554 613.143 245.624 613.143C242.374 613.143 239.911 612.178 238.235 610.248C236.61 608.268 235.798 605.652 235.798 602.402V579.779H228.485V577.951C230.973 576.834 233.055 575.006 234.731 572.467C236.407 569.877 237.88 566.703 239.149 562.945H242.044ZM282.546 573.152C284.729 573.152 286.938 573.686 289.173 574.752C291.458 575.768 293.413 577.189 295.038 579.018V573.914H301.284V612H295.038V605.525C293.718 607.557 291.915 609.334 289.63 610.857C287.395 612.381 284.831 613.143 281.936 613.143C278.686 613.143 275.716 612.33 273.024 610.705C270.333 609.029 268.175 606.719 266.55 603.773C264.976 600.828 264.188 597.426 264.188 593.566C264.188 589.352 264.976 585.721 266.55 582.674C268.175 579.627 270.384 577.291 273.177 575.666C275.97 573.99 279.093 573.152 282.546 573.152ZM283.688 579.246C280.946 579.246 278.61 579.932 276.681 581.303C274.751 582.674 273.253 584.451 272.186 586.635C271.171 588.768 270.663 591.078 270.663 593.566C270.663 596.004 271.171 598.264 272.186 600.346C273.202 602.377 274.624 604.002 276.452 605.221C278.331 606.439 280.489 607.049 282.927 607.049C285.263 607.049 287.345 606.439 289.173 605.221C291.001 604.002 292.448 602.326 293.515 600.193C294.581 598.01 295.089 595.572 295.038 592.881L294.962 585.568C293.388 583.588 291.686 582.039 289.858 580.922C288.081 579.805 286.024 579.246 283.688 579.246ZM333.788 573.152C336.581 573.152 338.993 573.609 341.025 574.523C343.056 575.387 344.452 576.174 345.214 576.885V583.207C343.792 582.141 342.167 581.227 340.339 580.465C338.511 579.652 336.327 579.246 333.788 579.246C331.097 579.246 328.735 579.906 326.704 581.227C324.673 582.496 323.099 584.197 321.982 586.33C320.915 588.412 320.382 590.697 320.382 593.186C320.382 595.623 320.915 597.908 321.982 600.041C323.099 602.123 324.673 603.824 326.704 605.145C328.735 606.414 331.097 607.049 333.788 607.049C336.327 607.049 338.511 606.668 340.339 605.906C342.167 605.094 343.792 604.154 345.214 603.088V609.41C344.452 610.172 343.056 610.984 341.025 611.848C338.993 612.711 336.581 613.143 333.788 613.143C329.929 613.143 326.501 612.229 323.505 610.4C320.509 608.572 318.148 606.16 316.421 603.164C314.745 600.117 313.907 596.791 313.907 593.186C313.907 589.58 314.745 586.254 316.421 583.207C318.148 580.16 320.509 577.723 323.505 575.895C326.501 574.066 329.929 573.152 333.788 573.152ZM391.505 573.914L373.833 590.52L392.495 612H384.574L369.491 594.633L364.083 599.66V612H357.837V557.156H364.083V592.5L383.05 573.914H391.505ZM406.642 602.707C408.115 602.707 409.359 603.24 410.374 604.307C411.441 605.322 411.974 606.566 411.974 608.039C411.974 609.461 411.441 610.705 410.374 611.771C409.359 612.838 408.115 613.371 406.642 613.371C405.169 613.371 403.9 612.838 402.833 611.771C401.818 610.705 401.31 609.461 401.31 608.039C401.31 606.566 401.818 605.322 402.833 604.307C403.9 603.24 405.169 602.707 406.642 602.707ZM435.642 560.965V605.525H463.75V612H428.787V560.965H435.642ZM486.427 560.965V587.777L509.736 560.965H519.334L497.929 584.502L521.619 612H512.097L492.978 589.986L486.427 597.146V612H479.572V560.965H486.427Z" fill="black" fill-opacity="0.65"/>
</svg>
